<svg xmlns="http://www.w3.org/2000/svg" viewBox="0 0 28.82 18.06"><defs><style>.cls-1{fill:#755cde;}</style></defs><g id="Layer_2" data-name="Layer 2"><g id="Layer_1-2" data-name="Layer 1"><path class="cls-1" d="M28.82,12.13l-.39,0H19.56a2.81,2.81,0,0,0,2,3.12,3.67,3.67,0,0,0,2.93-.36,2.13,2.13,0,0,0,.92-1c0-.07.11-.15.17-.15h2.94s0,.06,0,.08a5.68,5.68,0,0,1-3.18,3.73,7.13,7.13,0,0,1-3.2.49,6.1,6.1,0,0,1-6.09-5.59,7.32,7.32,0,0,1,.82-4.72,6.1,6.1,0,0,1,5-3.17,6.22,6.22,0,0,1,3.83.77,6.2,6.2,0,0,1,2.86,4.12c.1.45.15.92.23,1.38ZM25.26,9.92a2.65,2.65,0,0,0-3.08-2.71,2.68,2.68,0,0,0-2.62,2.71Z"/><path class="cls-1" d="M11.7,8.05c.48.26,1,.49,1.46.8a4,4,0,0,1,1.62,2.89A5.16,5.16,0,0,1,14.26,15a5,5,0,0,1-3,2.32,7.6,7.6,0,0,1-2.46.41c-2.89,0-5.78,0-8.67,0H0V0H8.29a9.2,9.2,0,0,1,3.16.45A3.61,3.61,0,0,1,14,3.86a6.94,6.94,0,0,1-.14,1.76,3.45,3.45,0,0,1-1.78,2.22ZM3.89,9.84V14.7l.21,0c1.32,0,2.65,0,4,0a6,6,0,0,0,1-.1,2,2,0,0,0,1.78-1.71,3.89,3.89,0,0,0,0-1.18A2,2,0,0,0,9.13,9.94,6.71,6.71,0,0,0,8,9.83H3.89Zm0-2.69H8a2.22,2.22,0,0,0,.51-.06,1.75,1.75,0,0,0,1.55-1.21,3.65,3.65,0,0,0,.1-1.19,1.51,1.51,0,0,0-1.1-1.42,4.52,4.52,0,0,0-1.32-.23C6.53,3,5.31,3,4.09,3l-.2,0Z"/><path class="cls-1" d="M26,1V2.65H18.82V1Z"/></g></g></svg>