<svg xmlns="http://www.w3.org/2000/svg" viewBox="0 0 20 15.01"><defs><style>.cls-1{fill:#755cde;}</style></defs><g id="Layer_2" data-name="Layer 2"><g id="Layer_1-2" data-name="Layer 1"><path class="cls-1" d="M20,4.22v9.2l0,0A1.85,1.85,0,0,1,18,15H1.83A1.84,1.84,0,0,1,0,13.13V4.37a.77.77,0,0,1,0-.15l.07,0,8.1,5.41a3,3,0,0,0,3.62,0l7.24-4.83Z"/><path class="cls-1" d="M20,2.11a2.34,2.34,0,0,1-.23.59,2.29,2.29,0,0,1-.58.62C16.48,5.15,13.75,7,11,8.78A1.74,1.74,0,0,1,9,8.78Q4.88,6.05.79,3.31A1.72,1.72,0,0,1,.07,1.36,1.85,1.85,0,0,1,1.77,0H18.05A1.86,1.86,0,0,1,19.9,1.26c0,.11.07.23.1.34Z"/></g></g></svg>