<svg xmlns="http://www.w3.org/2000/svg" viewBox="0 0 132 132"><defs><style>.cls-1{fill:#755cde;}</style></defs><g id="Layer_2" data-name="Layer 2"><g id="Layer_1-2" data-name="Layer 1"><path class="cls-1" d="M0,115V17a4.45,4.45,0,0,0,.24-.7A18.73,18.73,0,0,1,10.73,2.09,44.46,44.46,0,0,1,17,0h98a5,5,0,0,0,.71.24A19.24,19.24,0,0,1,132,19.16Q132,66,132,112.84A19.2,19.2,0,0,1,112.84,132Q66,132,19.17,132A19.31,19.31,0,0,1,.59,117.44C.38,116.62.2,115.8,0,115ZM100.79,66.24a34.8,34.8,0,1,0-34.85,34.81A34.87,34.87,0,0,0,100.79,66.24Zm15.47-42.47a7.73,7.73,0,1,0-7.75,7.68A7.76,7.76,0,0,0,116.26,23.77Z"/><path class="cls-1" d="M93.06,66.3a27.07,27.07,0,1,1-27-27.12A27.11,27.11,0,0,1,93.06,66.3Z"/></g></g></svg>