<svg xmlns="http://www.w3.org/2000/svg" viewBox="0 0 20 20.04"><defs><style>.cls-1{fill:#755cde;}</style></defs><g id="Layer_2" data-name="Layer 2"><g id="Layer_1-2" data-name="Layer 1"><path class="cls-1" d="M7.07,20V6.67h4V8.53a.83.83,0,0,0,.12-.15,4.21,4.21,0,0,1,3.13-2,6.27,6.27,0,0,1,2.44.14,3.82,3.82,0,0,1,2.87,2.8A9.11,9.11,0,0,1,20,11.46c0,.11,0,.21,0,.32V20H15.86q0-3.49,0-7a9.51,9.51,0,0,0-.11-1.31A1.85,1.85,0,0,0,14,10a2.17,2.17,0,0,0-2.62,1.86,7.85,7.85,0,0,0-.15,1.61c0,2.19,0,4.38,0,6.57Z"/><path class="cls-1" d="M.31,20a2.44,2.44,0,0,0,0-.27q0-6.4,0-12.82V6.67H4.48v13.1c0,.09,0,.18,0,.27Z"/><path class="cls-1" d="M2.69,0c.18.05.37.09.54.15A2.42,2.42,0,0,1,4.76,2.88a2.45,2.45,0,0,1-2.38,2A2.42,2.42,0,0,1,0,2.78,2.39,2.39,0,0,1,2,0l.11,0Z"/></g></g></svg>