<svg xmlns="http://www.w3.org/2000/svg" viewBox="0 0 49.12 49.11"><g id="Layer_2" data-name="Layer 2"><g id="Layer_1-2" data-name="Layer 1"><path d="M42,41.92a24.57,24.57,0,1,1-.24-34.86A24.58,24.58,0,0,1,42,41.92ZM14.72,26.3l0-.15a4.38,4.38,0,0,0,.51,0l22.75,0a5.15,5.15,0,0,0,.56,0,1.62,1.62,0,0,0,1.23-2.45,1.73,1.73,0,0,0-1.65-.81l-22.86,0h-.67l.48-.48,5.49-5.49a1.65,1.65,0,1,0-2.31-2.33Q14,18.93,9.67,23.24a1.67,1.67,0,0,0,0,2.64l8.61,8.61a2.86,2.86,0,0,0,.47.39,1.63,1.63,0,0,0,2-2.55c-1.87-1.89-3.76-3.76-5.64-5.65Z"/></g></g></svg>