<svg xmlns="http://www.w3.org/2000/svg" viewBox="0 0 357.89 287.02"><defs><style>.cls-1{fill:#fafafa;}.cls-2{fill:#f0f0f0;}.cls-3{fill:#ececec;}.cls-4{fill:#e7e7e7;}.cls-5{fill:#f5f5f5;}.cls-6{fill:#e1e1e1;}.cls-7{fill:#ffc3bd;}.cls-8{opacity:0.1;}.cls-15,.cls-9{fill:#007cff;}.cls-10{fill:#1a2e35;}.cls-11,.cls-15,.cls-18{opacity:0.3;}.cls-12{opacity:0.2;}.cls-13{fill:#ff8935;}.cls-14{opacity:0.5;}.cls-16,.cls-17{fill:#fff;}.cls-16{opacity:0.6;}.cls-19{fill:#ff8b7b;}.cls-20{fill:#ff5551;}.cls-21{opacity:0.4;}</style></defs><g id="Layer_2" data-name="Layer 2"><g id="Layer_1-2" data-name="Layer 1"><path class="cls-1" d="M295.11,108.32h52.67c7.29,0,12.16-7.09,9.25-13.42-3.49-7.62-10.94-11.75-17.65-6-10.12,8.6-9.64-8.08-21.74-5.74-10.59,2.05-9.13,11.93-15.61,14S286.61,106.05,295.11,108.32Z"/><path class="cls-1" d="M211.65,18.56H250.1c5.31,0,8.87-5.17,6.75-9.79-2.55-5.57-8-8.58-12.89-4.41-7.38,6.29-7-5.89-15.87-4.18-7.72,1.49-6.66,8.7-11.39,10.18S205.44,16.9,211.65,18.56Z"/><path class="cls-2" d="M287.74,251.73h-6.33V59.92c0-10.74,9.22-19.48,20.54-19.48h5.59v6H302c-7.84,0-14.21,6.05-14.21,13.48Z"/><rect class="cls-3" x="307.54" y="9.65" width="23.99" height="64.24"/><path class="cls-4" d="M307.54,73.89h24a0,0,0,0,1,0,0v1.54a3,3,0,0,1-3,3h-18a3,3,0,0,1-3-3V73.89A0,0,0,0,1,307.54,73.89Z"/><ellipse class="cls-2" cx="319.53" cy="22.93" rx="7.44" ry="7.06"/><ellipse class="cls-1" cx="319.53" cy="21.21" rx="7.44" ry="7.06"/><ellipse class="cls-2" cx="319.53" cy="42.21" rx="7.44" ry="7.06"/><ellipse class="cls-1" cx="319.53" cy="40.49" rx="7.44" ry="7.06"/><ellipse class="cls-2" cx="319.53" cy="61.49" rx="7.44" ry="7.06"/><ellipse class="cls-1" cx="319.53" cy="59.77" rx="7.44" ry="7.06"/><rect class="cls-3" x="306.75" y="195.63" width="41.75" height="17.28"/><rect class="cls-5" x="303.85" y="193.24" width="5.82" height="22.05"/><rect class="cls-5" x="345.59" y="193.24" width="5.82" height="22.05"/><path class="cls-5" d="M302.76,201.51h4a0,0,0,0,1,0,0V207a0,0,0,0,1,0,0h-4a1.82,1.82,0,0,1-1.82-1.82v-1.87A1.82,1.82,0,0,1,302.76,201.51Z"/><path class="cls-5" d="M350.32,201.51h4a0,0,0,0,1,0,0V207a0,0,0,0,1,0,0h-4a1.82,1.82,0,0,1-1.82-1.82v-1.87A1.82,1.82,0,0,1,350.32,201.51Z" transform="translate(702.82 408.54) rotate(-180)"/><path class="cls-5" d="M338.84,244.39H316.41V184.7c0-5.87,5-10.63,11.22-10.63h0c6.19,0,11.21,4.76,11.21,10.63Z"/><path class="cls-3" d="M318.51,240.83h18.24a6.15,6.15,0,0,1,6.15,6.15v4.75a0,0,0,0,1,0,0H312.36a0,0,0,0,1,0,0V247A6.15,6.15,0,0,1,318.51,240.83Z"/><ellipse class="cls-1" cx="327.63" cy="204.23" rx="9.6" ry="9.1"/><path class="cls-3" d="M329.91,204.23a2.29,2.29,0,1,1-2.28-2.16A2.23,2.23,0,0,1,329.91,204.23Z"/><path class="cls-2" d="M312.36,187.73h0a2.83,2.83,0,0,1,2.91-2.76H340a2.83,2.83,0,0,1,2.91,2.76h0a2.83,2.83,0,0,1-2.91,2.75H315.27A2.83,2.83,0,0,1,312.36,187.73Z"/><path class="cls-3" d="M322.75,218.28h0a2.83,2.83,0,0,1,2.9,2.76v14.24a2.84,2.84,0,0,1-2.9,2.76h0a2.84,2.84,0,0,1-2.91-2.76V221A2.83,2.83,0,0,1,322.75,218.28Z"/><path class="cls-3" d="M332.51,218.28h0a2.84,2.84,0,0,1,2.91,2.76v14.24a2.85,2.85,0,0,1-2.91,2.76h0a2.84,2.84,0,0,1-2.91-2.76V221A2.83,2.83,0,0,1,332.51,218.28Z"/><path class="cls-2" d="M18.76,251.85H16.54a1.11,1.11,0,0,1-1.15-1.13l2.4-51.78h5.72l-3.61,51.9A1.12,1.12,0,0,1,18.76,251.85Z"/><path class="cls-2" d="M28.1,251.85H25.87a1.11,1.11,0,0,1-1.14-1.13l2.4-51.78h5.72l-3.61,51.9A1.12,1.12,0,0,1,28.1,251.85Z"/><path class="cls-2" d="M54,251.85h2.23a1.11,1.11,0,0,0,1.14-1.13L55,198.94H49.29l3.6,51.9A1.12,1.12,0,0,0,54,251.85Z"/><path class="cls-2" d="M63.24,251.85h2.22a1.11,1.11,0,0,0,1.14-1.13l-2.39-51.78H58.49l3.61,51.9A1.11,1.11,0,0,0,63.24,251.85Z"/><rect class="cls-2" x="28.24" y="168.48" width="4.84" height="24.26"/><rect class="cls-2" x="49.66" y="168.48" width="4.84" height="24.26"/><path class="cls-5" d="M70.91,197.92c0,5.37-13.09,4.86-29.23,4.86s-29.23.51-29.23-4.86,13.08-9.72,29.23-9.72S70.91,192.55,70.91,197.92Z"/><path class="cls-5" d="M55.58,171.12H27.77a8.25,8.25,0,0,1-8.39-7.36l-.87-10.52a8.18,8.18,0,0,1,8.39-8.61H56.45a8.18,8.18,0,0,1,8.4,8.61L64,163.76A8.26,8.26,0,0,1,55.58,171.12Z"/><rect class="cls-2" x="15.58" y="71.44" width="32.83" height="24.54"/><rect class="cls-6" x="13.81" y="71.44" width="1.77" height="24.54"/><rect class="cls-1" x="18.93" y="73.95" width="26.14" height="19.54"/><rect class="cls-3" x="21.08" y="75.56" width="21.83" height="16.32"/><rect class="cls-3" x="55.18" y="31.62" width="36.14" height="43.45"/><rect class="cls-6" x="53.46" y="31.62" width="1.73" height="43.45"/><rect class="cls-5" x="58.87" y="36.05" width="28.77" height="34.59"/><rect class="cls-1" x="61.24" y="38.9" width="24.03" height="28.9"/><path class="cls-3" d="M68.5,49.1s4.25,5.69,6.43,5.6c2-.08,5.39-5.6,5.39-5.6s-4.24-5.7-6.43-5.61C71.9,43.57,68.5,49.1,68.5,49.1Z"/><path class="cls-2" d="M79.61,61.71c1.26-2.3-5.31-7.12-8-7-2.5.11-7.72,4.82-6.75,7C66.27,64.94,77.92,64.82,79.61,61.71Z"/><ellipse class="cls-6" cx="25.63" cy="36.93" rx="16.31" ry="21.56"/><ellipse class="cls-3" cx="27.57" cy="36.93" rx="16.31" ry="21.56"/><ellipse class="cls-4" cx="27.57" cy="36.93" rx="13.9" ry="18.37"/><ellipse class="cls-1" cx="27.57" cy="36.93" rx="12.42" ry="16.42"/><path class="cls-3" d="M31.47,45.85a11.58,11.58,0,0,0,3.83-9.14s-5.12-.57-5,7.57c0,0-5.78-5.68-4.07-9.28,2.67-5.62,2.67-5.62.78-9.14,0,0-5,1.92-2.74,8.42a19.81,19.81,0,0,0,.8,5s-5.07-4.6-6.7-1.59c0,0,2.7,4.88,6.7,2.85C25.1,40.54,29.6,48,31.47,45.85Z"/><ellipse id="_Path_" data-name="&lt;Path&gt;" class="cls-5" cx="175.23" cy="277.32" rx="175.23" ry="9.7"/><path class="cls-7" d="M244.45,91.57c-2.42-2.4-4.16-6.88-5-9.72l-3.8,8.69a5.68,5.68,0,0,1,1.41,5c0,.08-.14,1.53-2.67,3,0,0,.47,8.79,6,7.54s8.52-11.67,8.52-11.67l.39-3S246.7,93.46,244.45,91.57Z"/><path class="cls-8" d="M236.58,88.41l-.93,2.13a6.17,6.17,0,0,1,1.43,2.85c2.53-2.83,2.81-7.4,2.81-7.4Z"/><path class="cls-7" d="M196.49,130.69s14.9.58,21.52-1.14,12.24-12.69,12.24-12.69l-7.55-4-7.5,10.59-18.69,2.83-5.37-3.62s-10.86-2.19-10.86-.86,5.59,2.42,5.59,2.42.33,6.32,2.64,6.51S196.49,130.69,196.49,130.69Z"/><path class="cls-9" d="M233,100.46s-6.46.85-10.67,8.27-.63,7.7,2.95,9.8,5.36,2.54,7-2S237.14,100,233,100.46Z"/><path class="cls-8" d="M232.94,114.45l-2.38-4.63-4-.29a61.24,61.24,0,0,0,.21,9.82c2.61,1.29,4.12,1,5.51-2.82C232.46,115.94,232.7,115.24,232.94,114.45Z"/><path class="cls-10" d="M220.1,70.94s-4.7,1.58-1.6,6.12-3.15,7.61,7.37,8.86.37-16.8.37-16.8Z"/><path class="cls-11" d="M220.1,70.94s-4.7,1.58-1.6,6.12-3.15,7.61,7.37,8.86.37-16.8.37-16.8Z"/><path class="cls-9" d="M260.58,99.39C259,89.69,253,89.86,247.24,92c.41,3.66.42,8.32-5.15,11.22-5,2.61-7-1.68-7.08-5.33-5.26,2.83-9.66,6.47-8.22,13.67.83,4.12,4.66,8.64,8.58,14.37,4.69,6.85,9.52,14.64,9.52,14.64l26.8-12.95S262.28,109.91,260.58,99.39Z"/><path class="cls-12" d="M260.58,99.39a17.36,17.36,0,0,0-1-3.67l-4.06-.65-2.12,3.2s4.48,7.46,10.42,12.19A59.24,59.24,0,0,1,260.58,99.39Z"/><path class="cls-7" d="M267.75,96.31s9.19,6,12,8.26c4.18,3.43,15.46,15,15.46,15l6.91,3.59v4.14l-3.27,2.14a2.26,2.26,0,0,1-3.07-.55l-4.19-5.94s-10.34-9-14.14-11.51c-3.22-2.16-13.65-7.46-13.65-7.46Z"/><path class="cls-9" d="M250.76,91.13s5.93-2.53,11,0,7.28,3.92,6.79,7-2.35,9.36-5.68,8.31S248.91,95.38,250.76,91.13Z"/><path class="cls-7" d="M240.86,74.61c.68,6.57,1.12,9.34-1.77,13.2-4.35,5.82-13,5.18-15.75-1.06-2.47-5.61-3.18-15.4,3.09-19a9.81,9.81,0,0,1,13.06,3A8.74,8.74,0,0,1,240.86,74.61Z"/><path class="cls-13" d="M226.3,79.64a13.75,13.75,0,0,1-1.42,3.68,2.52,2.52,0,0,0,2.05.06Z"/><path class="cls-10" d="M230.92,75.25a.29.29,0,0,0,.1-.09.25.25,0,0,0-.1-.36h0a3.34,3.34,0,0,0-3-.18.26.26,0,0,0-.12.35.27.27,0,0,0,.37.11,2.85,2.85,0,0,1,2.45.17A.26.26,0,0,0,230.92,75.25Z"/><path class="cls-10" d="M220.57,76.91a.36.36,0,0,0,.12-.08,2.76,2.76,0,0,1,2.24-1,.27.27,0,0,0,.31-.22h0a.27.27,0,0,0-.25-.29,3.37,3.37,0,0,0-2.73,1.13.26.26,0,0,0,0,.37.28.28,0,0,0,.29,0Z"/><path class="cls-10" d="M230.09,78.16c.09.53-.13,1-.5,1.06s-.73-.33-.82-.86.13-1,.49-1.06S230,77.63,230.09,78.16Z"/><path class="cls-10" d="M223.78,79.13c.09.52-.14,1-.5,1.05s-.73-.32-.82-.85.13-1,.49-1.06S223.69,78.59,223.78,79.13Z"/><path class="cls-10" d="M223.12,78.27l-1.4-.16S222.58,79,223.12,78.27Z"/><path class="cls-10" d="M229.43,77.31l-1.4-.16S228.89,78,229.43,77.31Z"/><path class="cls-10" d="M231.44,85.82a8.64,8.64,0,0,0,1-.57.18.18,0,0,0,0-.27h0a.21.21,0,0,0-.28,0,5.7,5.7,0,0,1-4.81.89.2.2,0,0,0-.26.11.19.19,0,0,0,.12.25A6,6,0,0,0,231.44,85.82Z"/><path class="cls-10" d="M225.91,71c-2.69.3-9.95,2.26-8.8-4.14s14.07-9.59,20.07-5.45,10.61,3.82,15.38.46,7.07-2,13.15,1.1c0,0-3.28,5.38-1.72,8.65,0,0-3.62-3.43-10.36.23,0,0,7.81-2,10.77,3.15,0,0-.82,5.65,2.05,9s-.08,7.34-11.1,3.28-12.19-.33-14.73-2.12-4.45-6.64-4.84-10.17C235.5,72.49,234.31,70.07,225.91,71Z"/><path class="cls-7" d="M241.8,79.13a4.73,4.73,0,0,1-1.94,3.19c-1.42,1-2.78,0-2.93-1.63-.13-1.44.45-3.7,2.14-4.09a2.29,2.29,0,0,1,2.72,1.68A1.88,1.88,0,0,1,241.8,79.13Z"/><path class="cls-7" d="M278.1,260.7c.25,5.48.42,9.82.42,9.82l-6.42.7-1.54-9.38Z"/><path class="cls-9" d="M269.26,269.9a2.83,2.83,0,0,1-1.91-.35.5.5,0,0,1,0-.62.75.75,0,0,1,.45-.37c1.05-.34,3.37.73,3.47.78a.16.16,0,0,1,.09.15.15.15,0,0,1-.12.12A11.61,11.61,0,0,1,269.26,269.9Zm-1.1-1.12a1,1,0,0,0-.29.06.4.4,0,0,0-.28.21c-.1.19,0,.28,0,.32.33.38,1.94.29,3.13.08A7.46,7.46,0,0,0,268.16,268.78Z"/><path class="cls-9" d="M271.19,269.61h-.07c-.78-.28-2.41-1.5-2.32-2.19,0-.17.12-.38.53-.44a1.2,1.2,0,0,1,.87.19,4,4,0,0,1,1.15,2.29.13.13,0,0,1-.06.14A.12.12,0,0,1,271.19,269.61Zm-1.74-2.37h-.08c-.27,0-.29.15-.29.18,0,.42,1.06,1.39,1.89,1.79a3.3,3.3,0,0,0-1-1.82.84.84,0,0,0-.54-.15Z"/><path class="cls-10" d="M271.81,268.72l7-.42a.57.57,0,0,1,.58.38L281,274a.88.88,0,0,1-.63,1.11.63.63,0,0,1-.19,0c-2.53.12-4.78.12-7.92.32-3.71.22-2.74.58-7.09.91-2.63.19-3.3-2.61-2.19-2.82,5.05-.92,5.48-2.41,7.33-4.25A2.33,2.33,0,0,1,271.81,268.72Z"/><path class="cls-10" d="M274.21,131.47,273,127.32a.89.89,0,0,0-1.24-.52l-27.35,13.07a.82.82,0,0,0-.33,1.22l2.77,3.82s6.79,43.84,9.61,58.42c2.87,14.85,13.16,59.29,13.16,59.29a.66.66,0,0,0,.75.49l8-1.23a.62.62,0,0,0,.55-.59c.09-3.79,0-27.73-2.52-44.67-.9-6.05-3-10.9-3.78-14.23-.8-3.68.44-6.14.93-15C274.42,170.71,275.52,144.43,274.21,131.47Z"/><path class="cls-14" d="M273.49,187.39c.31-5.58.64-12.23.89-19.1l-7.93-12.68-3.53-7.48-3.35,4.31s5.91,23.57,13.67,38.38C273.34,189.79,273.42,188.66,273.49,187.39Z"/><path class="cls-7" d="M333.67,239.75c3.33,4.48,5.49,7.42,5.49,7.42l-5,3.88-6.65-7.1Z"/><path class="cls-9" d="M330.65,251.35a2.83,2.83,0,0,1-1.81.69.54.54,0,0,1-.38-.51.71.71,0,0,1,.17-.54c.69-.83,3.25-1.12,3.37-1.13a.14.14,0,0,1,.15.08.12.12,0,0,1,0,.16A10.33,10.33,0,0,1,330.65,251.35Zm-1.56-.38a1,1,0,0,0-.21.19.38.38,0,0,0-.12.33c0,.21.11.26.17.27.49.16,1.8-.75,2.68-1.53A7.06,7.06,0,0,0,329.09,251Z"/><path class="cls-9" d="M332.1,250.12l-.05,0c-.82.17-2.89,0-3.21-.65-.09-.14-.11-.38.2-.65a1.21,1.21,0,0,1,.84-.28,4.43,4.43,0,0,1,2.28,1.34.14.14,0,0,1,0,.14S332.14,250.1,332.1,250.12ZM329.3,249l-.08.05c-.21.17-.15.26-.14.3a4.16,4.16,0,0,0,2.61.53,3.65,3.65,0,0,0-1.86-1,.82.82,0,0,0-.53.15Z"/><path class="cls-10" d="M332.12,249.05l5.64-4a.59.59,0,0,1,.71,0l4.4,3.64A.85.85,0,0,1,343,250l-.15.13c-2.06,1.39-3.95,2.55-6.48,4.32-3,2.1-2,1.9-5.44,4.41-2.1,1.51-4.26-.5-3.45-1.24,3.72-3.37,3.24-4.84,3.74-7.35A2.11,2.11,0,0,1,332.12,249.05Z"/><path class="cls-10" d="M254.18,142s20.94,45.78,30.83,59.42c8.79,12.11,42.18,43.11,42.18,43.11a1.47,1.47,0,0,0,1.94.11l4.64-3.74a1.28,1.28,0,0,0,.29-1.71c-2.84-4.4-14.84-22.67-25.35-34.56-4.19-4.74-8.23-8.22-10.21-10.83-2.61-3.46-2-6.23-4.07-15.81-3.85-17.83-11.35-44.05-22.74-48.25Z"/><path class="cls-15" d="M213.76,271.36H128.45c-5.9,0-10.27-4.54-9.75-10.14L137.44,58.11C138,52.52,143.16,48,149.06,48h85.31c5.9,0,10.27,4.54,9.75,10.13L225.38,261.22C224.86,266.82,219.66,271.36,213.76,271.36Z"/><path class="cls-9" d="M234.37,48H149.06c-5.9,0-11.1,4.54-11.62,10.13L118.7,261.22c-.52,5.6,3.85,10.14,9.75,10.14h85.3c5.91,0,11.11-4.54,11.63-10.14L244.12,58.11C244.64,52.52,240.27,48,234.37,48ZM220.63,261.23a6.49,6.49,0,0,1-6.46,5.63h-85.3a5.2,5.2,0,0,1-5.43-5.63L142.18,58.12a6.51,6.51,0,0,1,6.47-5.64H234a5.21,5.21,0,0,1,5.43,5.64Z"/><path class="cls-16" d="M234.37,48H149.06c-5.9,0-11.1,4.54-11.62,10.13L118.7,261.22c-.52,5.6,3.85,10.14,9.75,10.14h85.3c5.91,0,11.11-4.54,11.63-10.14L244.12,58.11C244.64,52.52,240.27,48,234.37,48ZM220.63,261.23a6.49,6.49,0,0,1-6.46,5.63h-85.3a5.2,5.2,0,0,1-5.43-5.63L142.18,58.12a6.51,6.51,0,0,1,6.47-5.64H234a5.21,5.21,0,0,1,5.43,5.64Z"/><path class="cls-17" d="M183.91,258.81H160.45a1.45,1.45,0,0,0-1.44,1.25,1.16,1.16,0,0,0,1.21,1.25h23.46a1.43,1.43,0,0,0,1.43-1.25A1.15,1.15,0,0,0,183.91,258.81Z"/><path class="cls-8" d="M183.34,142.44H158.46a5.44,5.44,0,0,1-5.69-5.91l2.17-23.59a6.81,6.81,0,0,1,6.79-5.91H186.6a5.46,5.46,0,0,1,5.7,5.91l-2.18,23.59A6.8,6.8,0,0,1,183.34,142.44Z"/><path class="cls-9" d="M180.62,139.87H155.75a5.44,5.44,0,0,1-5.69-5.91l2.17-23.59a6.81,6.81,0,0,1,6.79-5.91h24.87a5.46,5.46,0,0,1,5.7,5.91L187.41,134A6.81,6.81,0,0,1,180.62,139.87Z"/><path class="cls-17" d="M174,120c.42-4.57-3.67-8.27-9.13-8.27s-10.23,3.7-10.65,8.27c-.33,3.62,2.15,6.68,5.91,7.81a5.38,5.38,0,0,1-2.37,2.22,4.27,4.27,0,0,0,.57.26,4.68,4.68,0,0,0,5.4-2C169,128.11,173.59,124.48,174,120Z"/><path class="cls-17" d="M185.45,124c.35-3.77-3-6.83-7.53-6.83a10.08,10.08,0,0,0-2.35.28,8.2,8.2,0,0,1,.17,2.58,10.66,10.66,0,0,1-5.42,8,7.78,7.78,0,0,0,5.76,2.8,3,3,0,0,0,3.82,1.62,3.32,3.32,0,0,0,.47-.2,3.05,3.05,0,0,1-1.45-1.66C182.41,129.74,185.16,127.11,185.45,124Z"/><path class="cls-8" d="M171.93,215.47h-18.5a4.06,4.06,0,0,1-4.24-4.4l1.62-17.55a5.08,5.08,0,0,1,5.05-4.4h18.5a4.07,4.07,0,0,1,4.24,4.4L177,211.07A5.08,5.08,0,0,1,171.93,215.47Z"/><path class="cls-8" d="M199.07,181.33H175.94a5.07,5.07,0,0,1-5.29-5.5l2-21.93a6.34,6.34,0,0,1,6.31-5.5h23.13a5.07,5.07,0,0,1,5.29,5.5l-2,21.93A6.34,6.34,0,0,1,199.07,181.33Z"/><path class="cls-9" d="M196.36,178.76H173.23a5.07,5.07,0,0,1-5.29-5.5l2-21.93a6.34,6.34,0,0,1,6.31-5.5H199.4a5.07,5.07,0,0,1,5.29,5.5l-2,21.93A6.34,6.34,0,0,1,196.36,178.76Z"/><path class="cls-9" d="M169.22,212.9h-18.5a4.06,4.06,0,0,1-4.24-4.4L148.1,191a5.07,5.07,0,0,1,5.05-4.4h18.5a4.05,4.05,0,0,1,4.23,4.4l-1.61,17.55A5.08,5.08,0,0,1,169.22,212.9Z"/><path class="cls-17" d="M197.88,153.25H176.42a2.69,2.69,0,0,0-2.67,2.33L172.51,169a2.15,2.15,0,0,0,2.24,2.33h21.46a2.69,2.69,0,0,0,2.68-2.33l1.23-13.42A2.15,2.15,0,0,0,197.88,153.25Zm-16.44,9-7.18,6.26L175.41,156Zm-4.71-7.41h20.54l-10.38,9.06a1.08,1.08,0,0,1-1.45,0Zm5.82,8.55,1.58,1.65a2.54,2.54,0,0,0,1.86.76,3,3,0,0,0,2-.76l1.89-1.65,6.05,6.29h-20.6Zm8.64-1.14,7.19-6.26-1.16,12.52Z"/><polygon class="cls-17" points="152.7 195 158.12 197.1 164.08 193.22 159.6 198.25 162.9 202.65 168.11 190.38 152.7 195"/><polygon class="cls-17" points="157.75 198.26 160.19 201.09 157.59 201.09 157.75 198.26"/><path class="cls-17" d="M155.59,202l-.57-.34a6.54,6.54,0,0,1,.55-.73l.52.42A4.66,4.66,0,0,0,155.59,202Z"/><path class="cls-17" d="M155.32,206.17a2.32,2.32,0,0,1-1.17-1.37l.66-.17a1.68,1.68,0,0,0,.86,1Zm-.57-2.2-.68-.05a4.55,4.55,0,0,1,.52-1.61l.61.29A3.48,3.48,0,0,0,154.75,204Z"/><path class="cls-17" d="M169,208.42l-.66-.11a2.71,2.71,0,0,0,0-.47,1.16,1.16,0,0,0-.24-.77l.52-.4a1.7,1.7,0,0,1,.4,1.17A3.09,3.09,0,0,1,169,208.42Zm-9.6-1.48-.71,0,0-.64c.53,0,1.07,0,1.61,0l0,.64Q159.86,206.94,159.38,206.94Zm1.8-.07-.05-.64,1.63-.14.07.64Zm-3.36,0-.28,0a8.36,8.36,0,0,1-1.4-.3l.22-.61a6.71,6.71,0,0,0,1.27.27l.27,0Zm9.76-.13a4.75,4.75,0,0,0-1.5-.21v-.64a5.1,5.1,0,0,1,1.74.26Zm-3.93-.07-.07-.64c.59-.06,1.14-.1,1.66-.12l0,.64C164.77,206.56,164.22,206.6,163.65,206.66Z"/><path class="cls-17" d="M168.42,210.07l-.62-.26c.12-.28.23-.54.32-.78l.64.21C168.67,209.49,168.56,209.77,168.42,210.07Z"/><path class="cls-8" d="M193.5,102.25H172.68a4.57,4.57,0,0,1-4.76-5l1.82-19.74a5.71,5.71,0,0,1,5.68-5h20.82a4.57,4.57,0,0,1,4.76,5L199.18,97.3A5.71,5.71,0,0,1,193.5,102.25Z"/><path class="cls-9" d="M190.79,99.67H170a4.56,4.56,0,0,1-4.76-5L167,75A5.7,5.7,0,0,1,172.71,70h20.81A4.57,4.57,0,0,1,198.29,75l-1.82,19.73A5.71,5.71,0,0,1,190.79,99.67Z"/><path class="cls-17" d="M191.9,88.88c-.37-7.26-5.91-13-13.47-14a5.31,5.31,0,0,0-6.34,1.39c-1.78,2.07-.2,3.4,1.85,4.91s3.81,2.64,5.59.56a5,5,0,0,0,1.18-2.69,11.75,11.75,0,0,1,7,7.3,5.46,5.46,0,0,0-2.91.88c-2.33,1.51-1.31,3.27.09,5.35s2.65,3.69,5,2.18A4.77,4.77,0,0,0,191.9,88.88Z"/><path class="cls-9" d="M183.22,44.57h14.17c.7,0,.79-1,.09-1H183.31c-.69,0-.79,1-.09,1Z"/><path class="cls-9" d="M202.58,44.57h4.07c.7,0,.8-1,.1-1h-4.07c-.7,0-.8,1-.1,1Z"/><g class="cls-18"><path class="cls-17" d="M183.22,44.57h14.17c.7,0,.79-1,.09-1H183.31c-.69,0-.79,1-.09,1Z"/></g><g class="cls-18"><path class="cls-17" d="M202.58,44.57h4.07c.7,0,.8-1,.1-1h-4.07c-.7,0-.8,1-.1,1Z"/></g><path class="cls-9" d="M229.92,148.52q-.63,6.71-1.24,13.43a.54.54,0,0,0,1.07.09q.63-6.72,1.24-13.43a.54.54,0,0,0-1.07-.09Z"/><path class="cls-9" d="M228.22,166.87l-.35,3.86a.54.54,0,0,0,1.07.09l.36-3.86a.54.54,0,0,0-1.08-.09Z"/><g class="cls-18"><path class="cls-17" d="M229.92,148.52q-.63,6.71-1.24,13.43a.54.54,0,0,0,1.07.09q.63-6.72,1.24-13.43a.54.54,0,0,0-1.07-.09Z"/></g><g class="cls-18"><path class="cls-17" d="M228.22,166.87l-.35,3.86a.54.54,0,0,0,1.07.09l.36-3.86a.54.54,0,0,0-1.08-.09Z"/></g><path class="cls-10" d="M104.44,88.73s-5.24-.68-4.61,1.9C100.29,92.52,102.05,88.81,104.44,88.73Z"/><path class="cls-19" d="M99.88,94.6s4.32,0,5-7.5c0,0,4.12-1.37,6.46,1.07s-3,7.15-.07,9.6C111.26,97.77,108.3,99.3,99.88,94.6Z"/><path class="cls-10" d="M115.87,68.24s5.57-1.13,7,2.75-8.24,2.17-8.24,2.17Z"/><path class="cls-11" d="M115.87,68.24s5.57-1.13,7,2.75-8.24,2.17-8.24,2.17Z"/><path class="cls-10" d="M120.42,77.91c.09-.49.44-.85.78-.8s.55.51.46,1-.44.86-.78.8S120.33,78.41,120.42,77.91Z"/><path class="cls-20" d="M120.69,78.85l2.44,3.73a3.63,3.63,0,0,1-3.11.25Z"/><path class="cls-19" d="M102.29,75.52c-.31,6.34-.58,9,2.41,12.61,4.76,3.81,12.81,4.35,15.1-1.79,2.07-5.52,2.22-15-4-18.16a9.4,9.4,0,0,0-12.4,3.49A8.2,8.2,0,0,0,102.29,75.52Z"/><path class="cls-10" d="M119.58,76.35a.33.33,0,0,0,.29,0,2.62,2.62,0,0,1,2.21-.38.3.3,0,1,0,.22-.55,3.21,3.21,0,0,0-2.79.45.28.28,0,0,0-.09.4h0A.28.28,0,0,0,119.58,76.35Z"/><path class="cls-10" d="M96.84,95.89s1.87-4.87,9.57-1.77,8.44,7.39,8.44,7.39Z"/><path class="cls-21" d="M96.84,95.89s1.87-4.87,9.57-1.77,8.44,7.39,8.44,7.39Z"/><path class="cls-19" d="M100.31,188.29s-1.1,8.89-1.62,11.83c-.47,2.6-15.35,70-15.35,70l-6.8-1.06S75.79,234.9,81,212.29c1.07-4.63,3.23-8.51,4-12,.63-2.84-.32-11.61-.32-11.61Z"/><path class="cls-19" d="M72,186.85s-3.16,8.14-4.63,10.66c-1.6,2.74-7.67,10.2-7.67,10.2l-32.36,43L21.2,247s9.33-23.69,23.39-43c3.35-4.6,8.18-8.1,10.8-12.67,1.51-2.63,2.8-11.67,2.8-11.67Z"/><path class="cls-19" d="M80.71,104.45s-7.74,9.36-7.08,13.3,12.79,8.72,12.79,8.72l3.09-4.15-8-5.52,7.59-8.25Z"/><path class="cls-10" d="M93.52,95.07c-1-.43-5.26-2.06-14.52,9.36,0,0,3.37,4,10.59,6.35C89.59,110.78,97.72,96.93,93.52,95.07Z"/><path class="cls-21" d="M89.59,110.78s1.35-2.3,2.67-5.15c-.22-4.89-.86-11-2.67-8.78a90.19,90.19,0,0,0-6.82,10.69A29,29,0,0,0,89.59,110.78Z"/><path class="cls-9" d="M82.3,133a73.11,73.11,0,0,0,28.82,7.86l-10.44,55.19S70.55,196,54.79,181.77C54.79,181.77,61.07,151.7,82.3,133Z"/><path class="cls-10" d="M81,133.15s12.06,8.44,31.28,7.86c0,0,11-28.95,4.12-38.73-4.27-6-20.68-8.79-25.11-7.07C86,97.28,89.07,115.43,81,133.15Z"/><path class="cls-8" d="M83.91,162.89,70.49,190.71A96.53,96.53,0,0,0,85,194.47S85.4,168.48,83.91,162.89Z"/><path class="cls-21" d="M111.36,107l-2.14,1.49a51.56,51.56,0,0,0,8,15.76A61.76,61.76,0,0,0,118.69,112l-4.75-3.82Z"/><path class="cls-19" d="M123.45,111.2l7.24,9.55,18.16,1.13,3.34-2.63a1.47,1.47,0,0,1,.79-.3l9.7-.73a.48.48,0,0,1,.53.49l-.06.79a.48.48,0,0,1-.45.43l-4.59.34-.94,4.47a1.39,1.39,0,0,1-1,1.05l-3.61.88a1.65,1.65,0,0,1-.7,0l-2.55-.61s-14.16,2.71-20.66,1.62-12.91-11.11-12.91-11.11Z"/><path class="cls-10" d="M115.08,118.45s-11.64-14.76-4.46-18.19S125.36,112,125.36,112,122.41,116.28,115.08,118.45Z"/><path class="cls-9" d="M84.81,269.74a.18.18,0,0,1-.14-.14.19.19,0,0,1,.09-.18c.12-.05,2.79-1.38,4-1a.94.94,0,0,1,.55.42.6.6,0,0,1,0,.73,3.33,3.33,0,0,1-2.22.46A13.4,13.4,0,0,1,84.81,269.74Zm.58-.21c1.39.22,3.28.27,3.64-.18,0-.05.1-.15,0-.37a.5.5,0,0,0-.34-.24,1,1,0,0,0-.33-.06A8.86,8.86,0,0,0,85.39,269.53Z"/><path class="cls-9" d="M84.72,269.73a.18.18,0,0,1-.08-.16c0-.09.29-2,1.27-2.7a1.43,1.43,0,0,1,1-.26c.49.07.63.31.64.5.13.8-1.73,2.28-2.64,2.62h-.07A.24.24,0,0,1,84.72,269.73Zm2.06-2.8a1,1,0,0,0-.62.19,3.89,3.89,0,0,0-1.08,2.14c1-.49,2.17-1.65,2.15-2.13,0-.05,0-.17-.35-.21Z"/><path class="cls-10" d="M84.08,268.72l-8.17-.29a.66.66,0,0,0-.66.46l-1.72,6.25a1,1,0,0,0,.77,1.27.93.93,0,0,0,.23,0c3,.05,5.57,0,9.24.13,4.32.15,3.21.61,8.29.85,3.06.15,3.76-3.13,2.46-3.34-5.92-.92-6.47-2.65-8.68-4.75A2.78,2.78,0,0,0,84.08,268.72Z"/><path class="cls-9" d="M28.4,251.17a.18.18,0,0,1-.06-.19.19.19,0,0,1,.17-.11c.13,0,3.14,0,4.07.82a.86.86,0,0,1,.29.6.63.63,0,0,1-.36.64,3.38,3.38,0,0,1-2.21-.53A13.43,13.43,0,0,1,28.4,251.17Zm.62.07c1.13.78,2.79,1.63,3.33,1.39.08,0,.17-.09.16-.34a.45.45,0,0,0-.18-.36,1.79,1.79,0,0,0-.28-.2A8.67,8.67,0,0,0,29,251.24Z"/><path class="cls-9" d="M28.32,251.12a.17.17,0,0,1,0-.17,5,5,0,0,1,2.42-1.87,1.33,1.33,0,0,1,1,.2c.41.26.42.54.34.72-.27.77-2.63,1.29-3.61,1.21a.07.07,0,0,1-.06,0A.2.2,0,0,1,28.32,251.12Zm3.18-1.62a1,1,0,0,0-.65-.09,4.13,4.13,0,0,0-2,1.45c1.08,0,2.72-.55,2.93-1,0,0,.05-.16-.21-.33l-.09,0Z"/><path class="cls-10" d="M28.24,250l-7.16-3.75a.68.68,0,0,0-.81.13l-4.51,4.84a1,1,0,0,0,.09,1.47l.18.12c2.61,1.31,5,2.38,8.19,4.07,3.79,2,2.57,1.91,7,4.31,2.67,1.44,4.85-1.2,3.79-1.94-4.85-3.35-4.52-5.12-5.5-7.94A2.52,2.52,0,0,0,28.24,250Z"/><path class="cls-10" d="M113.57,81s2.75-.81,1.71-4.59c0,0,1.6-2.54,1.34-3.93,0,0,8.12-4.44,3.5-9.32S107,61.51,103.31,67.75c0,0-19.84,6.11-6,17.61C110.76,96.59,113.57,81,113.57,81Z"/><path class="cls-10" d="M105.42,70.36S102.33,63.9,107,59,103.89,65.9,105.42,70.36Z"/><path class="cls-9" d="M113.57,81l.22-.09c0-4.82-2-10.62-9.48-14.58a14.36,14.36,0,0,0-1,1.45s-.57.17-1.44.52c2.59,2.62,9.74,11.3,1.71,20.78C111.68,91.45,113.57,81,113.57,81Z"/><path class="cls-19" d="M113.93,78.71a4.73,4.73,0,0,1,1.34,3.52c-.09,1.72-1.86,2-3.28,1.12s-2.75-2.74-2-4.25A2.4,2.4,0,0,1,113.93,78.71Z"/><path class="cls-10" d="M121.07,77.13l1.47-.08S121.58,77.92,121.07,77.13Z"/><path class="cls-12" d="M107.68,89.91a8.56,8.56,0,0,0,3.25,3.4c.3-.8.63-1.61.83-2.37A12.9,12.9,0,0,1,107.68,89.91Z"/></g></g></svg>