<svg xmlns="http://www.w3.org/2000/svg" viewBox="0 0 31.46 28.92"><defs><style>.cls-1{fill:#e77666;}</style></defs><g id="Layer_2" data-name="Layer 2"><g id="Layer_1-2" data-name="Layer 1"><path class="cls-1" d="M31.46,28.24a1.14,1.14,0,0,1-1.2.68c-1.5,0-3,0-4.49,0a1,1,0,0,1-1.06-1.14c.16-2,.3-4.09.49-6.13A2.78,2.78,0,0,1,27,19.3c.12-.06.21-.1.21-.28q0-5.19,0-10.4a1,1,0,0,0,0-.12L24.79,9.57q-4.84,2.19-9.7,4.4a1.3,1.3,0,0,1-1.17,0Q7.32,11,.7,8A1,1,0,0,1,0,7.12a.93.93,0,0,1,.64-.94l6-2.71L14,.13A1.2,1.2,0,0,1,15,.12q6.65,3,13.3,6A1.06,1.06,0,0,1,29,7.21c0,3.9,0,7.8,0,11.69a.39.39,0,0,0,.27.43,2.78,2.78,0,0,1,1.7,2.4c.16,1.76.28,3.52.43,5.28,0,.08,0,.19.06.24v.19s0,.08,0,.12,0,.09,0,.12Z"/><path class="cls-1" d="M31.41,27.56s0-.11.05-.12v.12S31.43,27.59,31.41,27.56Z"/><path class="cls-1" d="M31.41,27.56h.05v.12C31.4,27.66,31.4,27.61,31.41,27.56Z"/><path class="cls-1" d="M24.64,11.67c0,1.9,0,3.76,0,5.63a2,2,0,0,1-.77,1.45,6.09,6.09,0,0,1-2.2,1.18,20.46,20.46,0,0,1-5.09.91,28.2,28.2,0,0,1-5.88-.18,13.41,13.41,0,0,1-4.75-1.35,3.19,3.19,0,0,1-1.35-1.25,1.59,1.59,0,0,1-.22-.76c0-1.87,0-3.73,0-5.64l1.74.79c2.37,1.07,4.74,2.14,7.1,3.23a3,3,0,0,0,2.63,0q4.29-2,8.59-3.9Z"/></g></g></svg>