<svg xmlns="http://www.w3.org/2000/svg" viewBox="0 0 167.88 212.12"><defs><style>.cls-1{fill:#62c4b7;}.cls-2{fill:#55204c;}.cls-3,.cls-7{fill:#fff;}.cls-4{fill:#f4a560;}.cls-5{fill:#f39d9e;}.cls-6{fill:none;stroke:#fff;stroke-miterlimit:10;stroke-width:3px;}.cls-7{opacity:0.3;}</style></defs><g id="Layer_2" data-name="Layer 2"><g id="Layer_1-2" data-name="Layer 1"><polygon points="119.11 15.88 158.81 15.88 158.81 55.58 119.11 15.88"/><polygon class="cls-1" points="0 66.08 0 180.36 154.27 180.36 0 66.08"/><path class="cls-2" d="M19.51,0h71.1a0,0,0,0,1,0,0V128.25a31.34,31.34,0,0,1-31.34,31.34H50.85a31.34,31.34,0,0,1-31.34-31.34V0a0,0,0,0,1,0,0Z"/><polygon class="cls-3" points="90.75 138.39 167.88 138.39 167.88 212.12 90.75 138.39"/><circle class="cls-4" cx="55.06" cy="123.08" r="28.93"/><rect class="cls-5" x="43.11" y="55.58" width="124.78" height="26.09"/><circle class="cls-6" cx="109.46" cy="35.73" r="17.58"/><ellipse cx="98.78" cy="91.49" rx="2.36" ry="1.87"/><ellipse cx="121.03" cy="91.49" rx="2.36" ry="1.87"/><ellipse cx="143.27" cy="91.49" rx="2.36" ry="1.87"/><ellipse cx="165.52" cy="91.49" rx="2.36" ry="1.87"/><ellipse cx="98.78" cy="103.79" rx="2.36" ry="1.87"/><ellipse cx="121.03" cy="103.79" rx="2.36" ry="1.87"/><ellipse cx="143.27" cy="103.79" rx="2.36" ry="1.87"/><ellipse cx="165.52" cy="103.79" rx="2.36" ry="1.87"/><ellipse cx="98.78" cy="116.1" rx="2.36" ry="1.87"/><ellipse cx="121.03" cy="116.1" rx="2.36" ry="1.87"/><ellipse cx="143.27" cy="116.1" rx="2.36" ry="1.87"/><ellipse cx="165.52" cy="116.1" rx="2.36" ry="1.87"/><ellipse cx="98.78" cy="128.41" rx="2.36" ry="1.87"/><ellipse cx="121.03" cy="128.41" rx="2.36" ry="1.87"/><ellipse cx="143.27" cy="128.41" rx="2.36" ry="1.87"/><ellipse cx="165.52" cy="128.41" rx="2.36" ry="1.87"/><polygon class="cls-7" points="167.88 55.58 167.88 81.67 43.1 55.58 167.88 55.58"/><rect class="cls-1" x="26.09" y="6.81" width="21.55" height="21.55"/></g></g></svg>