<svg xmlns="http://www.w3.org/2000/svg" viewBox="0 0 137.26 93.02"><defs><style>.cls-1{fill:#f39d9e;}.cls-2{fill:#55204c;}.cls-3{fill:none;stroke:#fff;stroke-miterlimit:10;}.cls-4{fill:#755cde;}.cls-5{fill:#62c4b7;}.cls-6{fill:#fff;}.cls-7{fill:#f4a560;}</style></defs><g id="Layer_2" data-name="Layer 2"><g id="Layer_1-2" data-name="Layer 1"><path class="cls-1" d="M33.09,51H54.84A12.56,12.56,0,0,1,67.4,63.61V93a0,0,0,0,1,0,0H45.65A12.56,12.56,0,0,1,33.09,80.45V51A0,0,0,0,1,33.09,51Z" transform="translate(100.49 144.06) rotate(180)"/><path class="cls-2" d="M49.91,45.52h57.82a11.37,11.37,0,0,1,11.37,11.37v3.06a11.37,11.37,0,0,1-11.37,11.37H49.91a0,0,0,0,1,0,0V45.52A0,0,0,0,1,49.91,45.52Z" transform="translate(26.09 142.93) rotate(-90)"/><circle class="cls-3" cx="84.51" cy="37.86" r="10.78"/><rect class="cls-4" x="9.07" width="128.18" height="19.28" rx="8.5"/><circle class="cls-5" cx="116.84" cy="76" r="17.02"/><polygon class="cls-6" points="137.25 55.58 99.82 55.58 99.82 7.94 137.25 55.58"/><rect class="cls-7" x="17.02" y="32.9" width="31.76" height="31.76"/><ellipse class="cls-6" cx="2.66" cy="15.17" rx="2.66" ry="1.63"/><ellipse class="cls-6" cx="27.79" cy="15.17" rx="2.66" ry="1.63"/><ellipse class="cls-6" cx="52.92" cy="15.17" rx="2.66" ry="1.63"/><ellipse class="cls-6" cx="2.66" cy="27.75" rx="2.66" ry="1.63"/><ellipse class="cls-6" cx="27.79" cy="27.75" rx="2.66" ry="1.63"/><ellipse class="cls-6" cx="52.92" cy="27.75" rx="2.66" ry="1.63"/><ellipse class="cls-6" cx="2.66" cy="40.34" rx="2.66" ry="1.63"/><ellipse class="cls-6" cx="27.79" cy="40.34" rx="2.66" ry="1.63"/><ellipse class="cls-6" cx="52.92" cy="40.34" rx="2.66" ry="1.63"/></g></g></svg>