<svg xmlns="http://www.w3.org/2000/svg" viewBox="0 0 43.29 42"><g id="Layer_2" data-name="Layer 2"><g id="Layer_1-2" data-name="Layer 1"><path d="M20.05,0V20.05H0V14.84a1.68,1.68,0,0,0,.18.21A6.93,6.93,0,0,0,5.38,17a9.38,9.38,0,0,0,4.1-.76v-3A6.73,6.73,0,0,1,6,14.2,4.15,4.15,0,0,1,2.86,13,4.62,4.62,0,0,1,1.69,9.64,4.72,4.72,0,0,1,2.93,6.2,4.37,4.37,0,0,1,6.2,4.92a6.21,6.21,0,0,1,3.28.87V2.67a10.4,10.4,0,0,0-3.54-.53A7.46,7.46,0,0,0,.42,4.28,6.14,6.14,0,0,0,0,4.75V0Z"/><path d="M41.73,6.17a5.59,5.59,0,0,1,1,3.47,5.18,5.18,0,0,1-1,3.35,3.46,3.46,0,0,1-5.28,0,5.23,5.23,0,0,1-1-3.38,5.31,5.31,0,0,1,1-3.38,3.26,3.26,0,0,1,2.7-1.28A3.12,3.12,0,0,1,41.73,6.17Z"/><path d="M43.29,3.37a6.72,6.72,0,0,0-4.08-1.23A6.85,6.85,0,0,0,34,4.24a7.76,7.76,0,0,0-2,5.51A7.22,7.22,0,0,0,34,15a6.7,6.7,0,0,0,5,2,7,7,0,0,0,4.31-1.34v4.4h-20V0H43.29Z"/><path d="M5.05,35.27a4.34,4.34,0,0,1-3.3,1.26H.15v-9.1H1.73A4.54,4.54,0,0,1,5.06,28.6a4.37,4.37,0,0,1,1.18,3.23A4.83,4.83,0,0,1,5.05,35.27Z"/><path d="M20.05,22V42H0V39.15H2a7.68,7.68,0,0,0,5.56-2,7.08,7.08,0,0,0,2.09-5.36q0-7-7.65-7H0V22Z"/><rect x="37.34" y="27.43" width="5.95" height="3.19"/><rect x="37.34" y="33.25" width="5.95" height="3.28"/><polygon points="43.29 21.95 43.29 24.79 32.92 24.79 32.92 39.15 43.29 39.15 43.29 42 23.24 42 23.24 21.95 43.29 21.95"/></g></g></svg>