<svg xmlns="http://www.w3.org/2000/svg" viewBox="0 0 140 114.57"><defs><style>.cls-1{fill:#55204c;}.cls-2{fill:#755cde;}.cls-3{fill:#fff;}.cls-4{fill:#f4a560;}.cls-5{fill:none;stroke:#fff;stroke-miterlimit:10;}.cls-6{fill:#f39d9e;}.cls-7{fill:#e77666;}</style></defs><g id="Layer_2" data-name="Layer 2"><g id="Layer_1-2" data-name="Layer 1"><path class="cls-1" d="M105.69,0h21.75A12.56,12.56,0,0,1,140,12.56V42a0,0,0,0,1,0,0H118.25a12.56,12.56,0,0,1-12.56-12.56V0A0,0,0,0,1,105.69,0Z" transform="translate(245.69 41.97) rotate(180)"/><path class="cls-2" d="M93.22,42H140a0,0,0,0,1,0,0v60a12.56,12.56,0,0,1-12.56,12.56H80.65a0,0,0,0,1,0,0v-60A12.56,12.56,0,0,1,93.22,42Z"/><polygon class="cls-3" points="44.24 111.17 44.24 54.45 98.45 54.45 44.24 111.17"/><path class="cls-4" d="M34,0H91.85a11.37,11.37,0,0,1,11.37,11.37v3.06A11.37,11.37,0,0,1,91.85,25.81H34a0,0,0,0,1,0,0V0A0,0,0,0,1,34,0Z"/><circle class="cls-5" cx="90.18" cy="12.9" r="10.78"/><circle cx="47.01" cy="20.84" r="1.63"/><circle cx="62.39" cy="20.84" r="1.63"/><circle cx="77.77" cy="20.84" r="1.63"/><circle cx="47.01" cy="33.42" r="1.63"/><circle cx="62.39" cy="33.42" r="1.63"/><circle cx="77.77" cy="33.42" r="1.63"/><circle cx="47.01" cy="46.01" r="1.63"/><circle cx="62.39" cy="46.01" r="1.63"/><circle cx="77.77" cy="46.01" r="1.63"/><circle class="cls-6" cx="94.15" cy="40.84" r="11.34"/><rect class="cls-7" y="61.25" width="63.52" height="21.55"/></g></g></svg>