<svg xmlns="http://www.w3.org/2000/svg" viewBox="0 0 29.13 29.19"><defs><style>.cls-1{fill:#62c4b7;}</style></defs><g id="Layer_2" data-name="Layer 2"><g id="Layer_1-2" data-name="Layer 1"><path class="cls-1" d="M11.21,24.85a3.31,3.31,0,0,1,.18-.41c.21-.38.46-.74.66-1.13a.75.75,0,0,0,0-.42c-.12-.76-.63-1-1.33-1.15-1.05-.19-1-.23-1-1.29V18c0-.48.1-.61.56-.73s.8-.22,1.21-.3c.2-.05.27-.17.37-.33A1.39,1.39,0,0,0,11.7,15c-.66-1-.63-.92.19-1.73l1.7-1.69c.33-.34.5-.36.91-.11s.71.44,1.08.63a.73.73,0,0,0,.42,0c.75-.13,1-.64,1.14-1.34.19-1,.24-1,1.29-1h2.39c.54,0,.66.09.79.62s.21.76.29,1.15c0,.21.16.27.32.37a1.37,1.37,0,0,0,1.67-.15c1-.65.91-.64,1.73.19l1.72,1.72a.59.59,0,0,1,.1.87c-.22.37-.45.73-.65,1.11a.66.66,0,0,0,0,.42c.12.73.6,1,1.3,1.13,1.17.21,1.07.27,1.07,1.38v2.39c0,.44-.11.59-.53.7s-.85.2-1.27.33a.72.72,0,0,0-.31.29,1.33,1.33,0,0,0,.12,1.69c.65,1,.63.92-.19,1.73-.58.57-1.15,1.15-1.72,1.72a.57.57,0,0,1-.87.1c-.36-.21-.72-.45-1.1-.65a.74.74,0,0,0-.42,0c-.73.12-1,.6-1.13,1.31-.21,1.14-.25,1.07-1.34,1.07-.77,0-1.55,0-2.32,0-.58,0-.69-.09-.84-.66-.09-.37-.2-.74-.27-1.11,0-.21-.17-.27-.33-.37a1.36,1.36,0,0,0-1.67.15c-1,.66-.92.61-1.73-.2-.56-.58-1.14-1.14-1.71-1.72A3.23,3.23,0,0,1,11.21,24.85Zm12.52-5.41a4.32,4.32,0,1,0-4.29,4.34A4.33,4.33,0,0,0,23.73,19.44Z"/><path class="cls-1" d="M7.35,16.61c.05-.58.09-1.16.14-1.75a.34.34,0,0,0-.17-.35A.8.8,0,0,1,7,14c0-.5,0-1,0-1.52a.53.53,0,0,1,.58-.59H9.66a.54.54,0,0,1,.59.59c0,.51,0,1,0,1.52,0,.18-.19.35-.29.53s-.16.2-.16.3c0,.41.06.81.07,1.22a.31.31,0,0,1-.1.24c-.29.2-.59.38-.9.58l-.18-2.22H8.6c0,.29-.06.58-.08.87-.1,1.24-.23,2.47-.27,3.71a6.5,6.5,0,0,0,.27,1.34,3.57,3.57,0,0,1,.11.55,1.63,1.63,0,0,0,1.18,1.52L11,23l-.48.81a1.66,1.66,0,0,0,.28,2.36c.68.68,1.35,1.36,2,2a1.63,1.63,0,0,0,2.17.29l.92-.56.34,1.31H.78C.16,29.19,0,29,0,28.41V15.17a2.72,2.72,0,0,1,2.57-2.88c.88-.11,1.75-.28,2.63-.41.45-.06.61,0,.74.48.42,1.35.85,2.7,1.28,4.06,0,.07,0,.14.07.21ZM9.16,13H8.11v.49H9.16Z"/><path class="cls-1" d="M14,5.46a5.37,5.37,0,1,1-10.74,0A5.42,5.42,0,0,1,8.71,0,5.43,5.43,0,0,1,14,5.46Z"/></g></g></svg>