<svg xmlns="http://www.w3.org/2000/svg" viewBox="0 0 28.38 28.43"><defs><style>.cls-1{fill:#f39d9e;}</style></defs><g id="Layer_2" data-name="Layer 2"><g id="Layer_1-2" data-name="Layer 1"><path class="cls-1" d="M5.6,0H6.76l.18.05a6.19,6.19,0,0,1,5.34,7.06.46.46,0,0,0,.11.33c.31.33.64.65,1,1L20.91,16a.49.49,0,0,0,.34.16,6.17,6.17,0,0,1,6.93,4.58c.08.31.13.63.2.94v1.17l-.06.24c-.18.61-.33,1.22-.55,1.82a.75.75,0,0,1-.95.46,1.47,1.47,0,0,1-.5-.32L23.5,22.19l-1.37,1.37c.06.05.15.11.22.18L25,26.41a.84.84,0,0,1-.28,1.47,3.47,3.47,0,0,1-.41.16l-1.55.39H21.61l-.56-.12a6.19,6.19,0,0,1-5-6.91.47.47,0,0,0-.16-.48l-2.76-2.77L7.46,12.44a.47.47,0,0,0-.34-.14A6.19,6.19,0,0,1,.56,3.61.84.84,0,0,1,2,3.35c.21.2.41.4.61.61L4.88,6.23,6.24,4.86a2,2,0,0,1-.19-.15L3.32,2A.83.83,0,0,1,3.59.57,4.22,4.22,0,0,1,4.26.31C4.7.19,5.15.1,5.6,0Z"/><path class="cls-1" d="M28.38,4.83a8.06,8.06,0,0,1-.52.64c-.95,1-1.92,1.94-2.86,2.88l-5-5s0,0,0,0Q21.6,1.83,23.17.26A2.33,2.33,0,0,1,23.55,0h.39a5,5,0,0,1,.6.43q1.71,1.7,3.4,3.42a5.32,5.32,0,0,1,.44.59Z"/><path class="cls-1" d="M.61,28.43c-.23-.15-.5-.27-.55-.57a1.1,1.1,0,0,1,0-.57c.74-1.9,1.51-3.79,2.26-5.69,0,0,0,0,0,0l4.5,4.51-2,.79c-1.22.49-2.45,1-3.67,1.47a.83.83,0,0,0-.16.09Z"/><path class="cls-1" d="M8.29,25,3.42,20.1l4.64-4.65,4.87,4.88Z"/><path class="cls-1" d="M23.71,9.59,20.34,13l-4.9-4.91,3.37-3.38Z"/></g></g></svg>