<svg xmlns="http://www.w3.org/2000/svg" viewBox="0 0 105.97 95.28">
    <defs>
        <style>.cls-1{fill:#f39d9e;}.cls-2{fill:#55204c;}.cls-3{fill:#755cde;}.cls-4{fill:#62c4b7;}.cls-5{fill:none;stroke:#fff;stroke-miterlimit:10;}.cls-6{fill:#e77666;}</style>
    </defs>
    <g id="Layer_2" data-name="Layer 2">
        <g id="Layer_1-2" data-name="Layer 1">
            <polygon class="cls-1" points="90.75 63.97 23.82 63.97 23.82 0 90.75 63.97" />
            <path class="cls-2" d="M71.66,11.34H93.41A12.56,12.56,0,0,1,106,23.91V53.31a0,0,0,0,1,0,0H84.22A12.56,12.56,0,0,1,71.66,40.75V11.34A0,0,0,0,1,71.66,11.34Z" transform="translate(177.63 64.66) rotate(180)" />
            <path class="cls-3" d="M84.22,53.31H106a0,0,0,0,1,0,0V82.72A12.56,12.56,0,0,1,93.41,95.28H71.66a0,0,0,0,1,0,0V65.88A12.56,12.56,0,0,1,84.22,53.31Z" />
            <path class="cls-4" d="M0,11.34H57.82A11.37,11.37,0,0,1,69.19,22.72v3.06A11.37,11.37,0,0,1,57.82,37.15H0a0,0,0,0,1,0,0V11.34a0,0,0,0,1,0,0Z" />
            <circle class="cls-5" cx="56.15" cy="24.25" r="10.78" />
            <circle cx="12.98" cy="32.18" r="1.63" />
            <circle cx="28.36" cy="32.18" r="1.63" />
            <circle cx="43.74" cy="32.18" r="1.63" />
            <circle cx="12.98" cy="44.77" r="1.63" />
            <circle cx="28.36" cy="44.77" r="1.63" />
            <circle cx="43.74" cy="44.77" r="1.63" />
            <circle cx="12.98" cy="57.35" r="1.63" />
            <circle cx="28.36" cy="57.35" r="1.63" />
            <circle cx="43.74" cy="57.35" r="1.63" />
            <circle class="cls-6" cx="60.12" cy="52.18" r="11.34" />
        </g>
    </g>
</svg>