<svg xmlns="http://www.w3.org/2000/svg" viewBox="0 0 188.36 64.52"><defs><style>.cls-1{fill:#f4a560;}.cls-2{fill:#e77666;}.cls-3{fill:#fff;}.cls-4{fill:#62c4b7;}.cls-5{fill:#755cde;}.cls-6{fill:none;stroke:#fff;stroke-miterlimit:10;stroke-width:2px;}</style></defs><g id="Layer_2" data-name="Layer 2"><g id="Layer_1-2" data-name="Layer 1"><path class="cls-1" d="M126.7,0h43.09a0,0,0,0,1,0,0V36.3a0,0,0,0,1,0,0H126.7a16,16,0,0,1-16-16V16A16,16,0,0,1,126.7,0Z"/><circle class="cls-2" cx="170.21" cy="18.15" r="18.15"/><ellipse class="cls-3" cx="4.41" cy="17.55" rx="4.41" ry="1.67"/><ellipse class="cls-3" cx="45.98" cy="17.55" rx="4.41" ry="1.67"/><ellipse class="cls-3" cx="87.55" cy="17.55" rx="4.41" ry="1.67"/><ellipse class="cls-3" cx="129.13" cy="17.55" rx="4.41" ry="1.67"/><polygon class="cls-4" points="185.56 62.35 148.13 62.35 148.13 26.57 185.56 62.35"/><rect class="cls-5" x="107.29" y="26.09" width="36.3" height="36.3"/><circle class="cls-6" cx="84.04" cy="44.81" r="18.72"/></g></g></svg>